# xmcd
#
# Track frame offsets: 
#        150
#        13400
#        22442
#        33972
#        44185
#        56120
#        65592
#        77852
#        90277
#        101217
#        111695
#        121990
#        133730
#        146822
#        160820
#        173290
#        185880
#        196210
#        209020
#        217995
#        230185
#        238897
#        250177
#        263757
#        274677
#        287180
#        299002
#        311865
#        318970
#        330032
#        341615
#
# Disc length: 4723 seconds
#
# Revision: 2
# Processed by: cddbd v1.5.2PL0 Copyright (c) Steve Scherf et al.
# Submitted via: ExactAudioCopyFreeDBPlugin 1.0
#
DISCID=f612711f
DTITLE=Various Artist - Blowing the Fuse:  459 R&B Classics, 1945-196
DTITLE=0 [Bear Family]
DYEAR=1960
DGENRE=Rhythm and Blues
TTITLE0=Buster Brown - Fannie Mae
TTITLE1=Jimmy Jones - Handy Man
TTITLE2=Barrett Strong - Money (That's What I Want)
TTITLE3=Bobby 'Blue' Bland - I´ll Take Care of You
TTITLE4=Dee Clark - How About That
TTITLE5=Rosco Gordon - Just a Little Bit
TTITLE6=Dinah Washington and Brook Benton - Baby (You´ve Got What it T
TTITLE6=akes)
TTITLE7=Jackie Wilson - Doggin' Around
TTITLE8=Jimmy Reed - Baby, What You Want Me to Do
TTITLE9=Billy Bland - Let the Little Girl Dance
TTITLE10=Irma Thomas - Don't Mess with My Man
TTITLE11=Marv Johnson - I Love the Way You Love
TTITLE12=Etta James - All I Could Do Was Cry
TTITLE13=Ray Bryant Combo - The Madison Time, Part 1
TTITLE14=James Brown and The Famous Flames - Think
TTITLE15=Bobby Marchan - There is Something on Your Mind, Part 2
TTITLE16=Jessie Hill - Ooh Poo Pah Doo, Part 1
TTITLE17=Jon Thomas and His Orchestra - Heartbreak (It's Hurtin' Me)
TTITLE18=Fats Domino - Walking to New Orleans
TTITLE19=Howlin' Wolf - Spoonful
TTITLE20=The Shirelles - Tonight's the Night
TTITLE21=Jimmy Charles and The Revelletts - A Million to One
TTITLE22=Sugar Pie DeSanto - I Want to Know
TTITLE23=Hank Ballard and The Midnighters - Let's Go, Let's Go, Let's Go
TTITLE24=Jerry Butler - He Will Break Your Heart
TTITLE25=Brook Benton - Kiddio
TTITLE26=Ike and Tina Turner - A Fool in Love
TTITLE27=Marucie Williams and The Zodiacs - Stay
TTITLE28=The Drifters - Save the Last Dance for Me
TTITLE29=Joe Jones - You Talk Too Much
TTITLE30=Gary U.S. Bonds - New Orleans
EXTD=
EXTT0=
EXTT1=
EXTT2=
EXTT3=
EXTT4=
EXTT5=
EXTT6=
EXTT7=
EXTT8=
EXTT9=
EXTT10=
EXTT11=
EXTT12=
EXTT13=
EXTT14=
EXTT15=
EXTT16=
EXTT17=
EXTT18=
EXTT19=
EXTT20=
EXTT21=
EXTT22=
EXTT23=
EXTT24=
EXTT25=
EXTT26=
EXTT27=
EXTT28=
EXTT29=
EXTT30=
PLAYORDER=
